<svg xmlns="http://www.w3.org/2000/svg" width="18" height="32" fill="none" viewBox="0 0 18 32"><g fill-rule="evenodd" clip-path="url(#a)" clip-rule="evenodd"><path fill="#43372a" fill-opacity=".99" d="M1.198 13.511c.042-.465.104-.552.114-.99.02-.927.018-.93-.077-1.22-.215-.664-.135-.712-.423-1.012-.164-.17-.124-.194-.17-.427-.038-.198.043-.175.2-.298.123-.095.11-.118.066-.267-.113-.389-.116-.386-.21-.781-.083-.344-.153-.372-.205-.456-.017-.027-.018-.061-.037-.085-.007-.01-.015 0-.112-.107-.203-.227-.391-.276-.325-.578.004-.017.035-.16.053-.208.015-.044.045-.082.059-.127.005-.016-.006-.015.039-.21.052-.224.07-.218.113-.446.033-.172.05-.167.071-.343.054-.451.129-.518.164-1.105.024-.393.068-.387.101-.778.006-.073.004-.148.017-.22.008-.042.036-.08.047-.121.053-.214 0-.221.055-.435.011-.042.038-.08.048-.123.006-.026-.003-.026.05-.323.04-.227.052-.222.099-.446.205-.978.517-1.575.583-1.702.343-.692.778-1.175 1.83.007.51.575.761 1.266 1.044 1.815.2.387 1.08 2.915 1.18 3.064.078.115.222.05.272.37.066.411.021.442.136.519.222.15.804.019 1.947.277 1.029.233 1.282.203 1.518-.144.136-.2.15-.187.36-.301.086-.046.457-.429.578-.528.4-.329 2.808-2.403 4-2.973.06-.03.508-.251.789-.278.945-.091.86 1.035.828 1.867-.012.31-.079.716-.09.777-.032.2-.022.202-.026.22-.01.041-.033.079-.042.121-.093.393-.057.398-.065.432-.03.118-.041.112-.064.232-.053.284-.067.278-.13.55-.068.287-.33.974-.339.994-.05.115-.057.11-.091.23-.003.012-.21.605-.238.663-.04.082-.06.074-.088.23-.014.07-.021.142-.04.211-.013.045-.043.083-.056.127-.02.069-.023.142-.042.211-.005.016-.026.01-.096.337-.007.035-.006.073-.02.106-.019.044-.063.075-.078.12-.008.025.041.029-.028.328-.006.024-.055.235-.115.29-.082.079-.545.115-.83.384a15 15 0 0 0-.3.359 3 3 0 0 0-.25.422c-.068.226.103.236.02.456-.026.07-.042.056-.113.117-.03.027-.029.027-.168.172-.014.019-.036.029-.05.047-.076.097-.066.103-.14.199-.346.606-.398.619-.302 1.01.058.232.284 1.485.619 2.24.139.314.032.32-.03.452-.031.064.008.073-.168.869-.079.353-.122 1.056-.07 1.215.068.202.26.375.371.494.104.11.116.13.258.077.1-.038.039-.181.41-.584.473-.515.877-.708 1.309-1.028.421-.312.373.19.377.273-.045.07-.047.441-.047.441-.037.232-.017.235-.1.554-.017.065-.148.569-.344.768-.003.003-.081.03-.074.128.008.1.099.107.11.108.123.01.537-.315 2.835.498.606.215.207.44-.061.658-1.804 1.464-3.419.766-3.435.765-.055-.004-.168.089-.172.1-.077.192.073 1.023-1.112 3.004-.93 1.555-.692 2.523-2.634 4.243-.94.833-2 1.267-3.57 2.366-.465.327-.478.331-.526.347-.215.072-.446-.162-.996-.72-1.136-1.153-1.182-1.78-2.216-3.667-.28-.51-.593-.736-.795-1.813-.365-1.947-.529-2.254.01-3.983.108-.35.203-.35.092-.699-.037-.119-.046-.113-.217-.444a.4.4 0 0 1-.038-.094.5.5 0 0 0-.067-.13c-.021-.026-.025-.063-.035-.095-.01-.033-.057-.116-.063-.13-.011-.026 0-.03-.124-.328-.074-.178-.053-.183-.06-.198-.007-.014-.028-.017-.034-.03-.01-.027-.001-.03-.12-.33-.04-.099-.016-.104-.054-.202-.017-.045-.047-.083-.066-.127-.078-.182-.035-.192-.042-.206-.01-.018-.042-.01-.054-.025-.063-.083 0-.108-.058-.194-.013-.02-.048-.014-.066-.03-.12-.111-.06-.296-.051-.32.031-.094.089-.128-.037-.254-.168-.168-.045-.265.085-.504.023-.044.058-.081.075-.128.025-.067.028-.14.048-.208.005-.015.068-.142.08-.344.003-.044.027-.415-.028-.549-.019-.047-.053-.086-.075-.132-.013-.028-.012-.063-.032-.087-.007-.01-.023.009-.118-.104-.216-.258-.167-.287-.207-.346-.012-.018-.046-.008-.057-.026-.015-.022-.02-.215-.064-.304-.008-.015-.026-.024-.034-.04-.118-.224.134-.455.167-.526.007-.016-.027-.023.046-.205.018-.044.048-.083.064-.129.015-.045.012-.045.174-.569m4.454-7.235c-.011.004-.094.067-.251.09-.323.047-.563.045-1.103.693-.016.02-.078.094-.19.251-.222.314-.274.25-.377.31.026-.08.087-.267.404-.975.214-.478.186-.487.214-.689.02-.033.086-.035.133-.22.03-.123.129-.498-.025-1.232-.204-.98-.374-1.375-.43-1.562a4 4 0 0 0-.392-.865c-.24-.41-.198-.436-.487-.81-.18-.204-.294-.373-.68-.579-.583-.31-1.11 1.214-1.13 1.26C.93 2.96.832 3.708.653 5.398c-.035.334.13.273.33.593.092.148.17.346.337.556.28.356.223.385.216.395-.083.112-.352-.22-.375-.248-.072-.089-.041-.112-.132-.184-.122-.097-.124-.09-.133-.1-.047-.053-.02-.07-.066-.122-.01-.034-.107-.335-.21-.391-.02-.011-.023.04-.041.054-.017.013-.05.006-.059.025-.015.03-.002.069-.004.103-.015.287-.057.277-.117.556-.126.596-.303.663-.066.912.196.206.236.275.252.303.185.321.18.321.352.652l-.01.234c.005.019.025.01.082.23.009.035.021.069.028.103.007.036 0 .074.015.107.005.014.032.008.039.02a.8.8 0 0 1 .06.207c.037.223-.102.204-.145.328a1 1 0 0 0-.042.24c-.002.036.01.073.006.11-.002.029-.031.056-.023.085.006.02.044.014.057.032.02.025.016.063.035.088.01.015.062.016.092.124.01.033-.002.073.016.103.011.018.047.005.06.023.005.006.05.17.053.2.004.037-.013.077 0 .112.007.017.045.005.051.022.037.102.002.108.033.21.024.08.05.066.075.145.015.026.006.063.021.089.024.041.074.064.094.107.027.055-.019.06-.016.767.002.656.004.656.001.665-.013.042-.054.071-.065.113-.004.017.016.018-.01.218-.015.109-.014.185-.014.186-.015.025-.06.019-.074.044-.004.008.004.008-.01.106l-.033.206-.012.101c-.005.016-.02.026-.025.042-.01.034-.01.07-.019.105-.006.027-.01.026-.12.33-.033.095-.17.301-.12.446.002.005.083.088.06.23-.035.222-.058.241.086.412.038.045.046.038.507.698.205.294.233.275.697 1.091.083.144.065.153.168.283.033.043.026.047.03.049.058.027.066-.003.125.025-.047.167-.047.164-.116.32-.039-.044-.023-.053-.061-.096-.007-.009-.01-.003-.101-.092-.006-.006-.005-.006-.215-.337a33 33 0 0 1-.425-.68c-.01-.023-.105-.228-.201-.24-.03-.003-.027.057-.044.083-.01.014-.036.018-.037.036-.003.069.063.068 0 .336-.052.226-.093.21-.157.432-.03.109-.017.112.051.204.119.16.055.179-.025.361-.127.29.042.307.231.88.1.303.168.4.222.554.155.439.49 1.195.508 1.242.106.267.118.27.363.415.201.119.69.804 1.842 1.481.533.313.53.318 1.104.544.147.12.224.1.175.22-.016.038-.05.067-.065.105-.247-.076-.279-.041-1.205-.55-.209-.116-.53-.352-.666-.434-.088-.052-.418-.33-.502-.387-.206-.18-.206-.177-.402-.366-.214-.206-.315-.343-.392-.347-.057-.002-.112.184-.117.202-.258.875-.367 1.087-.401 2.11-.008.235.349 2.07.389 2.228.056.222.07.216.079.24.076.274.072.273.082.295.006.015.026.02.034.034.05.088.024.098.073.185.01.016.03.023.04.038.008.01.075.11.082.13.005.015-.012.033-.004.046.01.019.036.022.048.039.019.025.026.058.043.084.11.167.097.173.205.343.01.016.033.024.04.043.005.016-.018.035-.01.05.01.018.04.018.053.035.018.023.073.118.08.128.05.087.026.095.073.184.007.013.026.019.033.032.057.114.049.116.113.224a1 1 0 0 1 .043.092c.051.114.066.104.115.22.091.21.185.366.218.445.088.212.103.204.11.222.067.158.463.905.634 1.128.058.075.424.606 1.097 1.23.153.143.147.15.161.161.22.185.434-.034.5-.084.15-.115.604-.418.653-.454.03-.021.216-.155.38-.254.773-.465.767-.475.837-.51.02-.01.736-.442 1.006-.637.2-.143.209-.126.41-.266.383-.268.374-.278.709-.607.112-.11.11-.11.221-.22.387-.386.384-.389.701-.838.363-.513.742-1.539.79-1.651.249-.577.272-.65.425-.9.166-.272.153-.276.168-.3.148-.231.13-.24.269-.478.114-.197.402-.778.473-.985.4-1.158.355-1.518.371-1.666.035-.33.297-.554.353-.793.072-.307-.415-.869-.514-.888-.037-.007-.075.014-.111.007-.299-.195-.299-.197-.521-.474-.017-.021-.025-.049-.043-.068s-.052-.023-.063-.047c-.014-.032-.08-.09-.104-.113s-.085-.092-.11-.112c-.023-.02-.007-.065-.027-.087-.02-.02-.06-.009-.08-.03s-.011-.059-.03-.081c-.016-.02-.05-.015-.067-.035-.019-.021-.019-.055-.032-.08-.034-.063-.103-.06-.103-.432 0-.803.067-.796.073-.893.003-.04-.017-.08-.014-.12.019-.045.076-.066.094-.111.007-.016-.022-.017.013-.218.03-.175.105-.198.112-.22.008-.025-.002-.024-.076-.332-.039-.16-.054-.167.021-.313.01-.017.078-.15.047-.229-.006-.016-.037-.008-.047-.023-.02-.029-.022-.066-.035-.098-.018-.043-.049-.083-.056-.13-.005-.028.029-.054.022-.081-.004-.017-.039-.006-.048-.02-.046-.074-.267-1.008-.329-1.333-.035-.182-.221-.75-.091-.975.01-.016.035-.017.045-.034.048-.087.011-.101.065-.186.01-.016.034-.02.044-.037.05-.084.018-.098.072-.18.011-.017.034-.023.045-.04.017-.026.015-.063.035-.088.016-.019.052-.013.064-.034.048-.082-.002-.103.06-.175.015-.018.04-.025.055-.042.017-.018.21-.217.213-.224.023-.049-.022-.385.06-.525.009-.015.036-.015.043-.03s.004-.015.052-.19c.012-.02.037-.03.05-.051.016-.026.02-.057.035-.084.05-.096.513-.604.657-.674.247-.12.564-.17.612-.243.055-.082.294-1.272.41-1.516.087-.182.115-.183.087-.23-.065-.111-.306.102-.327.121l-.114.104c-.023.018-.052.028-.072.048-.017.017-.021.045-.039.062-.02.02-.058.02-.072.046-.015.026.008.064-.007.09h-.127c-.074.054-.083.04-.242.177-.059.05-.031.095-.108.094-.053 0-.074-.096-.127-.096l.034-.07.114-.11c.292-.282.38-.34.416-.365.134-.09.233-.196.358-.3.105-.089.325-.22.42-.356.215-.307.195-.349.232-.44.289-.708.477-1.534.5-1.682.042-.274.07-.268.086-.544.027-.495.102-.897.018-1.559-.04-.145-.135-.676-.512-.741-.196-.034-.738.17-.852.228-.197.1-.195.104-.212.113-.062.044-.068.03-.13.075-.03.022-.018.032-.048.054-.023.017-.055.019-.077.038-.021.017-.027.05-.048.068-.02.017-.048.02-.07.035l-.113.111-.106.113c-.337.335-.345.323-.715.616-.042.033-.861.837-.896.877-.012.014-.014.035-.026.05-.028.02-.062.032-.09.053l-.352.297c-.37.313-.354.364-.463 1.678-.092 1.113-.325 1.469-.238 1.603.016.024.04.04.056.064 0 .003-.033.1.02.214.298.623 1.105 1.745 1.037 3.238-.019.411-.107.398-.165 1.005-.017.174-.124.846-.019 1.11.016.04.05.072.056.114.002.014-.028-.002-.039.005-.073.05-.06.063-.134.113-.053-.06-.053-.056-.105-.117-.399-.468-.598-.467-.954-.93-.098-.196-.107-.19-.115-.208-.003-.008-.069-.273-.072-.278-.06-.085-.155-.03-.166-.024-.058.033-.496.56-.669.877-.258.47-.236.482-.263.52-.004.005-.145.068-.19-.059-.19-.53.668-1.354.904-1.677.195-.268.3-.322.136-.584-.066-.105-.032-.136-.143-.192-.05-.025-.282.127-.304.142-.334.22-.427.186-.572.208-.081-.071-.028-.11-.11-.182-.007-.006-.007-.006-.11-.01-.037-.002-.075.01-.11 0-.04-.01-.072-.042-.11-.06-.164-.08-.169-.071-.212-.114-.228-.223.03-.485-.041-.659-.018-.043-.062-.072-.08-.115.208-.186.452-.547 1.006-.38.423.128.61.59.87 1.05.22.387.196.475.306.424.102-.049.116-1.106-.284-1.668-.207-.29-.222-.276-.444-.455-.175-.141-.167-.22-.21-.306-.247-.398-.315-.52-.342-.565-.043-.077-.045-.073-.088-.13-.11-.146-.132-.122-.174-.16.008-.064.12-.079.128-.142.007-.05-.066-.077-.092-.12-.016-.028-.019-.063-.032-.092-.114-.25-.199-.289-.01-.487.266-.279.275-.269.498-.582.052-.01.027-.05.079-.06.008-.002.031-.006.098.027.106.052.53.582.573.635.076.096.065.101.133.205.08.12.07.131.083.13a.2.2 0 0 0 .133-.093c.022-.041-.042-.21-.048-.226-.063-.165-.063-.163-.12-.33-.172-.495-.556-1.241-.602-1.276-.05-.035-.108-.056-.157-.091-.019.02-.05.028-.068.049-.018.02-.02.052-.039.071-.02.022-.053.03-.077.048-.014.01-.018.037-.035.038-.03 0-.054-.04-.084-.034-.02.003-.041.082-.336.097-.381.018-.686-.108-.881-.126-.515-.048-.56-.085-1.149-.126-.005-.001-.236-.05-.272-.04-.035-.007-.072 0-.107-.007-.115-.023-.111-.034-.227-.048a6 6 0 0 1-.314-.054c-.014-.005-.009-.034-.023-.04-.033-.014-.073-.004-.108-.015-.012-.004-.083-.025-.114-.118-.012-.034-.005-.073-.018-.107-.006-.015-.029-.02-.035-.035-.02-.05 0-.053-.02-.102M13.1 20.65c-.947 1.335-2.028 2.055-2.32 2.211-.735.392-1.494.742-3.067.798-.25.009-.247-.018-.322-.022-.218-.015-.208.178-.336.233-.031.014-.07.005-.1.021-.015.008-.008.04-.023.045-.033.013-.07.008-.105.005-.028-.002-.055-.017-.084-.02.026-.024.073-.014.099-.039.02-.019.01-.058.027-.08.017-.024.05-.03.07-.05.02-.022.027-.053.044-.076.012-.018.033-.029.044-.047.016-.028.012-.069.036-.09.021-.019.062.002.084-.017l.16-.043.182-.098c.035-.007.072 0 .107-.006.132-.028.186-.096.196-.101.336.11.342.103.69.048 1.054-.166 2.277-.397 3.917-2.158l.107-.113c.017-.02.022-.048.04-.067s.048-.025.065-.046c.013-.014 0-.022.138-.194.016-.019.025-.044.042-.061.02-.02.051-.027.07-.048.016-.019.008-.058.03-.068.024-.011.08.01.086.014.066.026.055.042.123.069"/><path fill="#de622e" d="M13.525 19.866c.036.007.074-.014.11-.007.1.02.587.58.515.888-.056.24-.318.464-.353.793-.016.148.028.508-.371 1.666a9 9 0 0 1-.473.985c-.139.238-.121.247-.27.478-.014.023-.001.028-.168.3-.153.25-.175.323-.424.9-.049.112-.427 1.138-.79 1.651-.317.449-.314.452-.7.838l-.222.22c-.336.33-.326.339-.71.607-.2.14-.21.123-.41.267-.27.194-.986.626-1.005.636-.07.035-.064.045-.838.51a6 6 0 0 0-.379.254c-.05.036-.504.339-.653.454-.066.05-.281.269-.5.084-.014-.011-.008-.018-.162-.16-.672-.625-1.038-1.156-1.096-1.232-.171-.222-.567-.97-.634-1.127-.007-.018-.022-.01-.11-.222-.034-.079-.127-.235-.218-.446-.05-.115-.064-.105-.115-.22a1 1 0 0 0-.043-.091c-.065-.108-.056-.11-.113-.224.2.011.229-.04.361.115.01.01.005.03.016.038.11.078.116.064.227.138.414.277 1.491.785 1.61.847.427.221 1.2.579 1.556.627.93.127 1.27-.077 1.62-.267.063-.035.706-.46.363-1.003-.004-.007-.016-.005-.02-.011.21.005.23.048.468-.126.015-.01.16-.116.172-.162.007-.026.031-.11-.124-.305a3.4 3.4 0 0 0-.393-.255c-.197-.086-.624-.033-.678-.026-.17.05-.179.028-.327.128-.1.068-.052.093-.053.214-.054.007-.096.061-.15.069-.002 0-.189-.056-.211-.064-.089-.032-.726-.26-1.118-.37-.603-.17-.593-.194-1.2-.36-.77-.21-.756-.256-1.531-.458-1.129-.293-1.106-.366-1.204-.39-.036-.008-.074.012-.11.005-.05-.009-.096-.042-.147-.05-.008-.024-.022-.018-.078-.24-.04-.159-.397-1.993-.39-2.228.035-1.023.144-1.235.402-2.11.005-.018.06-.204.117-.202.077.003.178.14.392.347.196.19.195.186.401.366.085.057.415.335.503.387.136.082.457.319.666.433.926.51.957.475 1.205.55.015.024.013.056.028.08.014.021.026.01.194.26.113.167.45.334.653.31.044-.006.085-.028.129-.033.028.002.055.017.084.019.035.003.072.008.104-.005.016-.006.008-.037.023-.045.03-.016.07-.007.101-.021.127-.055.118-.248.335-.233.076.004.073.03.323.022 1.573-.056 2.332-.406 3.067-.798.292-.156 1.373-.876 2.32-2.211.201-.38.246-.447.27-.485.09-.136.08-.14.156-.3m.903.656c-.121-.302-.134-.296-.133-.324.004-.243.799-.265.872-.267.159-.004.185-.037.66.04.88.14 1.422.382 1.545.423.138.046.172.002.236.13.014.029.042.057.036.088-.005.025-.03-.002-.256.176-.182.143-.179.144-.374.267a3 3 0 0 1-.303.157c-.433.194-.421.226-.882.327-.431.095-.906.07-.985.065-.072-.004-.144.001-.215-.011-.005-.001-.09-.046-.226-.069-.157-.025-.212.037-.236-.09-.03-.155.06-.221.212-.475.05.016.082.07.132.085.173.055 1.217-.355 1.43-.38.168-.02.256.035.238-.134-.006-.057-.016-.148-.681-.214-.907-.09-1.06.2-1.07.206m-.897-1.012c-.04-.025-.047-.005-.088-.03a.1.1 0 0 1-.044-.049c-.08-.187.055-.308.129-.454.07-.142.081-.133.187-.25.415-.46.441-.442.647-.582.071-.049.19-.182.37-.28.027-.014.38-.334.337.109-.075.793-.299 1.157-.33 1.228a2.3 2.3 0 0 1-.367.525c-.291.3-.382.085-.429.041.077-.124.447-.682.497-1.014.002-.017.029-.195-.048-.206-.073-.011-.47.344-.631.66-.05.1-.193.257-.23.302"/><path fill="#b74f2c" d="M2.52 26.001c.051.01.096.042.147.051.036.007.074-.013.11-.005.098.024.075.097 1.204.39.775.202.76.248 1.532.458.606.166.596.19 1.199.36.392.11 1.029.338 1.118.37l.211.064c.054-.008.096-.062.15-.07-.213-.47.912-.448 1.118-.328.297.172.713.343.444.649-.183.207-.336.216-.332.223.344.544-.575.968-.639 1.003-.35.19-.689.394-1.619.267-.356-.048-1.129-.406-1.555-.627-.12-.062-1.197-.57-1.611-.847-.111-.074-.117-.06-.227-.138-.01-.008-.007-.028-.016-.038-.132-.154-.161-.104-.361-.114-.008-.014-.026-.02-.033-.033-.047-.088-.023-.097-.074-.184a2 2 0 0 0-.08-.128c-.013-.017-.043-.016-.052-.035-.008-.015.014-.034.01-.05-.007-.018-.03-.027-.04-.043-.108-.17-.096-.176-.205-.343-.018-.026-.025-.059-.043-.084-.013-.017-.039-.02-.049-.038-.007-.014.01-.032.005-.046-.008-.02-.075-.12-.081-.13-.01-.016-.031-.023-.04-.039-.05-.087-.023-.097-.074-.185-.008-.014-.028-.019-.034-.034-.01-.022-.007-.021-.082-.296m11.908-5.479c.01-.007.163-.296 1.07-.206.665.066.675.157.681.214.018.169-.07.114-.237.134-.214.025-1.258.435-1.43.38-.05-.015-.083-.069-.133-.085.043-.158.067-.153.063-.317 0-.04-.013-.08-.014-.12m-.897-1.012c.037-.045.18-.202.23-.301.161-.317.558-.672.63-.661.078.011.052.19.049.206-.05.332-.42.89-.497 1.014-.259-.24-.31-.217-.412-.258"/><path fill="#f6996d" d="M12.76 21.536c.029.07.068.038.098.108.003.008.019.045-.007.108-.045.11-.057.1-.16.242-.152.207-.149.207-.246.33a9 9 0 0 1-1.311 1.348c-.632.527-.74.624-1.255.93-.115.068-.792.47-1.504.726-.421.151-2.653 1.141-3.544.476-.35-.26-.324-.288-.611-.616-.248-.283-.85-1.195-1.082-1.884-.199-.593-.325-.88-.142-.892.098-.006.097.019.125.114.353 1.198.953 1.796 1.061 1.916.264.294.234.322.527.588.301.272.592.728 2.337.364.403-.084.409-.068.776-.257.08-.01.311-.015.784-.229.14-.062.484-.185.85-.39a7.5 7.5 0 0 0 1.223-.864c.893-.779 1.42-1.2 2.08-2.118"/><path fill="#8e7455" d="M5.652 6.276c.02.05 0 .053.02.102.007.015.03.02.036.035.013.034.006.073.018.107.03.093.102.114.114.118.035.01.075.001.108.015.014.006.008.035.023.04.01.004.245.046.314.054.115.014.112.025.227.048.035.006.072 0 .107.007l.327.006c.589.041.579.112 1.094.16.195.018.5.144.88.126.296-.015.318-.094.337-.097.03-.006.054.035.083.034.018 0 .022-.028.036-.038.024-.019.056-.026.077-.048.02-.019.021-.05.04-.071.018-.021.048-.029.067-.05.048.037.108.057.156.092.047.035.431.781.602 1.276.058.167.058.165.12.33.007.017.071.185.049.226a.2.2 0 0 1-.133.093c-.013.001-.003-.01-.083-.13-.068-.104-.057-.109-.133-.205-.043-.053-.467-.583-.573-.635-.067-.033-.09-.029-.098-.027-.052.01-.027.05-.08.06-.223.313-.231.303-.497.582-.189.198-.104.237.01.487.013.03.015.064.032.091.025.044.1.07.092.12-.009.064-.12.079-.129.142-.008-.003-.548-.305-.92.025a2 2 0 0 0-.216.303c-.12.263-.186.928-.17.983.008.026.043.038.05.064-.017.054-.057.098-.076.152-.02.06-.004.062-.024.123-.087.265-.077.267-.083.547l-.003.124.013.11c-.043.025-.026-.064-.067-.04-.013.007-.054.031-.113.145a1.4 1.4 0 0 0-.015.326c.043.675-.028.676.022 1.222.1 1.082.29 1.46.431 2.113.116.538-.117.48-.652.946-.027-.062-.07-.115-.098-.177-.045-.1-.014-.206-.235-.666-.053-.11-.086-.115-.101-.136-.013-.022-.015-.05-.027-.071-.13-.229-.387-.188-1.313-.262-.099-.008-.4-.002-.54.06-.219.094-.21.111-.35.304l-.005.117c-.04-.037.017-.172.004-.117-.014.064-.077-.045-.106-.032-.041.017-.066-.047-.108-.03-.036.013-.054-.003-.09.009a.3.3 0 0 1-.12.023c-.054-.006-.09-.041-.144-.102.013-.034.06-.16.166-.41.648-1.519.716-1.92 1.004-2.679.044-.115.177-.437.173-.446-.023-.058-.104-.077-.128-.135l.106-.21c.103-.431.107-.43.156-.872.058-.528.51-1.166-.033-1.657-.552-.502-1.295.164-1.321.184-.07.053-.06.06-.108.132-.024.035-.057.062-.08.097l.092.037c-.183.082-.258.043-.259.246 0 .023.05.027.05.05-.11.022-.244-.016-.484.194-.496.434-.648.926-.702 1.046-.073-.022-.06-.048-.134-.07a.1.1 0 0 0-.07.008c-.02.012-.065.12-.249.295-.169.16-.245.322-.322.1-.005-.017-.001-.016.065-.228.007-.025-.006-.027.072-.319.051-.189.372-.932.716-1.353.323-.397.303-.414.665-.773.087-.086.486-.52.501-.56.005-.013-.03.008-.04-.001l-.129-.192c.004-.002.089-.01.14-.107.016-.029.01-.03.025-.057l.02-.089c.102-.06.155.004.377-.31.112-.157.174-.232.19-.25.54-.649.78-.647 1.103-.694.157-.023.24-.086.251-.09"/><path fill="#a97f60" d="M7.508 12.402c-.008-.324.001-.323-.042-.645l-.013-.11.003-.124c.005-.28-.004-.282.083-.547.02-.06.004-.062.024-.123.019-.053.058-.098.077-.152.064-.042.078-.02.209-.14.017-.015.879-.627 1.277-.443.042.02.079.05.12.074.099.056.098.056.108.056.084-.003.064-.063.146-.066.043.086.035.165.21.306.222.18.237.165.444.456.4.562.386 1.619.284 1.667-.11.051-.087-.037-.306-.425-.26-.459-.447-.92-.87-1.048-.554-.168-.799.193-1.006.379-.016.019-.04.03-.055.049-.037.044-.066.094-.1.14-.221.285-.279.25-.394.592l.02.188c.058.09.216.044.65.118.315.055.314.052.652.053.145-.022.238.011.572-.208.022-.015.254-.167.303-.142.112.056.078.087.144.192.164.262.059.316-.136.584-.236.323-1.094 1.147-.904 1.677.045.127.186.064.19.058.027-.037.005-.048.263-.52.173-.315.61-.843.669-.876.011-.006.107-.06.165.024.004.005.07.27.073.278.008.018.017.012.115.209-.07.016-.065.025-.136.042-.06.014-.062 0-.064.005-.013.025.02.054.019.083-.004.269-.2 1.307-.451 1.881-.008.018-.094.213-.1.222-.257.382-.164-.332-.615-.403-.217-.034-.237.005-.552-.232-.164-.123-.268-.338-.325-.323-.055.015-.09.076-.146.09-.002-.022-.02-.07-.02-.211 0-.28-.046-.274-.12-.681-.025-.134-.269-1.469-.337-1.669-.042-.12-.066-.107-.111-.226-.013-.034-.004-.074-.017-.109M1 8.544c.036-.024.093.025.128.002.173-.116.058-.16-.018-.355-.163-.419-.145-.428-.386-.805C.54 7.098.631 7.073.71 6.741c.055-.23.06-.226.119-.453.047.053.019.07.065.122.01.01.011.003.134.1.09.072.06.096.132.184.023.028.292.36.375.248.007-.01.064-.039-.217-.395-.165-.21-.245-.408-.337-.556-.2-.32-.364-.259-.329-.592.18-1.69.277-2.44.687-3.45.018-.047.546-1.571 1.129-1.26.386.205.5.374.68.578.29.374.247.4.487.81.268.456.37.792.391.865.057.187.227.582.431 1.562.154.734.056 1.11.025 1.232-.047.185-.113.187-.133.22-.227-.559-.241-.55-.481-1.104-.074-.172-.185-.109-.198-.112.105.495.114.516.074.528-.078.023-.224-.34-.31-.532-.05-.112-.086-.107-.105-.129-.011-.012-.005-.049-.021-.045a.12.12 0 0 0-.082.066c-.038.088.133.314.216.774.033.186.013 1.118.012 1.123-.03.115-.095.132-.142.024-.082-.189-.09-.417-.173-.427-.057-.007-.089.363-.043.727.043.343.16.321.145.667 0 .031-.014.067.001.095.013.023.28.24.304.262-.086.129-.136.3-.903.71-.337.18-.36.128-.697.31.013.023-.035.053-.022.076.073.128.406-.03.482.035.095.08.03.1-.063.184-.208.187-.147.232-.31.46a4.3 4.3 0 0 0-.412.778c-.09.252-.06.573-.084.62-.033.065-.087.116-.12.18-.023-.08-.05-.066-.075-.146-.03-.102.005-.108-.032-.21-.007-.017-.045-.004-.051-.022-.013-.035.004-.075 0-.112a2 2 0 0 0-.053-.2c-.013-.018-.049-.004-.06-.023-.018-.03-.007-.07-.016-.103-.03-.108-.082-.109-.093-.123-.018-.026-.015-.064-.034-.09-.013-.017-.051-.01-.057-.031-.009-.029.02-.056.023-.085.003-.037-.008-.074-.006-.11 0-.02.004-.133.042-.24.043-.124.182-.105.145-.328a.8.8 0 0 0-.06-.206c-.008-.013-.034-.007-.04-.02-.013-.034-.007-.072-.014-.108-.007-.034-.02-.068-.028-.102-.057-.22-.078-.212-.082-.231l.01-.233zm12.617-4.715c.045.019.083.052.127.071.116.048.118.014.218-.063.67-.512 1.086-.458 1.224-.348.09.071.275.176.244 1.028-.07 1.927-.736 2.919-.88 3.134-.82 1.22-1.211 1.348-1.087 1.508.017.023.054.023.071.046l-.033.069c.053 0 .074.096.127.096.077.001.05-.043.107-.094.16-.138.169-.123.243-.178l.127.001c-.001.033.03.06-.008.204-.124.485-.265.387-.652.697-.46.37-.586.655-.617.725-.192.435-.083.473.056.702-.047.174-.044.174-.05.189-.009.016-.035.015-.044.03-.082.14-.037.476-.06.525-.003.007-.196.206-.213.224-.016.017-.04.024-.055.042-.062.072-.012.094-.06.175-.012.021-.049.016-.064.034-.02.025-.019.062-.035.089-.011.016-.034.022-.045.039-.054.082-.022.096-.072.18-.01.017-.034.021-.044.037-.054.085-.017.1-.066.187-.009.016-.035.017-.044.034-.13.224.056.792.091.974.062.325.283 1.26.329 1.332.009.015.043.004.048.02.007.028-.027.054-.022.082.007.047.038.087.056.13.012.033.015.07.035.098.01.015.04.007.047.023.031.079-.038.212-.047.229-.075.146-.06.153-.021.313.074.308.084.307.076.333-.007.02-.082.044-.112.22-.035.2-.006.201-.013.217-.018.045-.075.066-.094.11-.038.003-.023.036-.061.038-.07.003-.065-.031-.136-.028a4 4 0 0 0-.438.112c-.165.049-.167.017-.335-.01-.015-.09.045-.129-.139-.28-.297-.242.005-.297.229-.832.082-.196.067-.205-.003-.997.066-.03.072-.004.139-.033.008-.004.08-.036.096-.07.018-.041-.151-.124-.166-.131l-.048-.083c.073-.05.061-.063.134-.112.01-.008.041.008.039-.005-.006-.043-.04-.075-.056-.115-.106-.264.002-.936.019-1.11.058-.607.146-.594.164-1.005.068-1.493-.738-2.615-1.035-3.238-.054-.113-.02-.21-.021-.214.104-.064.1-.067.206-.127l.2-.124c.059.022.089.096.148.117.049.018.466-.224.559-.26.016-.007.195-.078.202.064.006.119-.024.111-.085.234-.113.229-.08.558-.107.77-.077.612.253.103.266.084.17-.262.003-.326.347-1.094.31-.694 1.196-1.182 1.568-1.761.483-.752.73-1.425.704-2.232-.01-.345-.351-.2-.509-.142-.502.183-.653.31-.758.364-.464.243-1.03.69-1.055.712-.374.343-.36.356-.396.381a.4.4 0 0 1-.203.028c-.06-.035-.088-.115-.15-.15.055-.115.05-.114.118-.22.11-.17.033-.318.031-.34.012-.014.015-.035.027-.049.035-.04.854-.844.896-.877.37-.293.378-.28.715-.616zm-9.75 5.602c.67-.05.764-.07.893.307.148.436.093.452.143.56.076.16.226.212.189.553l-.025.228c-.002.037.006.076-.002.113-.008.034-.037.061-.044.096-.033.159.045.207.06.216.023.015.057-.008.08.006l-.106.21c-.059.11-.059.107-.106.225-.102.26-.242.478-.331.676-.23.504-.252.49-.404.797-.304.614-.324.602-.35.655-.02.043-.084.173-.18.565l-.135-.095c-.033-.061-.008-.068-.041-.13-.06-.11-.08-.091-.084-.101-.012-.038.03-.084.011-.12-.014-.025-.062-.002-.085-.02 0 0-.168-.264-.193-.313-.199-.391.02-.462-.441-1.577-.144-.348-.116-.356-.133-.43.012-.031.006-.069.019-.1.028-.074.093-.177.102-.192.08-.125.153-.11.17-.123.07.094.07.092.136.187.118.167.115.17.283.284.252.169.52.14.69.132.623-.027.63-.027.668-.065.159-.163-.155-.76-.212-.905-.026-.067-.21-.532-.668-.593-.561-.075-.772.328-1.116.817-.047.057-.057.046-.097.116-.014.026-.025.054-.042.079-.11.157-.188.172-.21.176-.02.004-.03-.037-.05-.033.093-.34.102-.334.216-.666.054-.12.206-.611.702-1.046.24-.21.374-.172.484-.193 0-.024-.05-.027-.05-.051 0-.203.076-.164.26-.245m5.55 11.268c-.026.032-.036.018-.063.05-.028.034-.015.04-.04.074-.152.2-.424.486-.462.526-.604.635-.568.736-.731 1.175-.153.41-.242.386-.306.454-.016-.075-.045-.146-.061-.22-.013-.062.035-.065-.065-.775-.026-.18.01-.242.127-.345.156-.138.899-.61.986-.673.098-.07.103-.06.205-.125q.031-.018.057-.044c.028-.033.046-.074.075-.106.033-.037.06-.102.11-.1.013 0 .001.02.134.106.01.006.024-.003.034.003m-7.199-8c.008-.016.078-.157.123-.175.177-.07.23.108.307.338.11.324.102.534.208.799.109.273-.161 1.069-.175 1.094-.017.03-.05.049-.064.08-.052.119-.024.126-.03.135-.064.083-.1.037-.163.12-.103-.351-.152-.535-.148-1.233.005-.944.023-.944.012-.985-.005-.02-.033-.028-.04-.048-.017-.04-.014-.086-.03-.126"/><path fill="#5b4a39" d="M12.404 17.294c-.003.04.017.08.014.12-.006.097-.073.09-.073.893 0 .373.068.37.102.432.014.025.014.059.033.08.016.02.051.015.068.035.018.022.008.061.028.082.02.02.061.008.08.03.021.021.005.067.028.086.025.02.086.09.11.112s.09.081.104.113c.011.024.046.028.063.047.018.02.026.047.042.068.223.277.223.279.522.474-.077.159-.066.163-.155.3a6 6 0 0 0-.271.484c-.068-.027-.057-.043-.123-.07-.007-.002-.062-.024-.085-.013-.023.01-.015.05-.031.068-.019.021-.05.028-.07.048-.017.017-.026.042-.042.061-.137.172-.126.18-.138.194-.017.02-.047.027-.065.046-.018.02-.024.047-.04.067l-.107.113c-1.64 1.761-2.863 1.992-3.917 2.158-.348.055-.354.062-.69-.048.018-.247.017-.245.024-.296.063-.068.153-.043.305-.454.163-.44.127-.54.73-1.175a7 7 0 0 0 .463-.526c.025-.034.013-.04.04-.073s.037-.02.063-.05l.087-.117c.622-.712.814-1.051.992-1.244.11-.117.106-.117.115-.127.047-.048.062-.052.03-.114-.05-.1-.079-.054-.186-.025-.019.005-.017.008-.23.067-.081.023-.09.045-.152-.012-.143-.13.12-.189.12-.19.295-.15.297-.143.597-.284.389-.183.604-.476.681-.555.033-.033.057-.033.06-.124.006-.136-.065-.08-.196-.052-.176.038-.73.074-1.435.483-.035.02-.246.143-.422.275-.012.01-.018.028-.03.037-.016-.036-.074-.041-.09-.077-.032-.072.105-.2.119-.213.33-.308 1.543-.924 1.86-1.002l.098-.021c.169.027.17.059.335.01.035-.01.356-.107.438-.112.071-.003.066.031.136.028.038-.002.023-.035.061-.037m-9.822-5.442c.018.074-.011.082.133.43.462 1.115.243 1.186.441 1.577.025.05.193.314.193.314.023.017.071-.006.085.02.019.035-.023.08-.01.119.003.01.023-.01.083.101.033.062.008.069.04.13-.02.017-.05.02-.071.037-.018.014-.027.037-.043.053-.01.01.003.025-.682.517-.272.195-.315-.045-.328-.06.063-.083.1-.037.163-.12.006-.01-.022-.016.03-.135.014-.031.047-.05.064-.08.014-.025.284-.82.175-1.094-.106-.264-.098-.475-.207-.8-.078-.23-.13-.407-.308-.337-.045.018-.115.159-.123.174-.016.016-.087.027-.22.26-.285.505-.235.526-.335.776-.007.019-.061.155-.197.145-.057-.005-.108-.047-.165-.052l.012-.101.033-.206c.014-.098.006-.098.01-.106.014-.025.06-.02.073-.044 0-.001 0-.077.014-.186.027-.2.007-.2.011-.218.011-.042.052-.071.065-.113.003-.009.001-.01-.001-.665-.003-.708.043-.712.016-.767-.02-.043-.07-.066-.094-.107-.015-.026-.006-.063-.021-.089.032-.063.086-.114.119-.178.024-.048-.005-.369.084-.621.098-.279.347-.685.413-.777.162-.229.101-.274.31-.46.092-.084.157-.105.062-.185-.076-.064-.408.093-.482-.035-.013-.023.036-.053.022-.076.338-.183.36-.13.698-.31.767-.41.816-.581.903-.71l.127.192c.01.009.046-.012.041 0-.015.041-.414.475-.501.561-.362.359-.342.376-.665.773-.344.42-.665 1.164-.715 1.353-.079.293-.066.294-.073.319-.066.212-.07.21-.065.227.077.223.153.062.322-.1.184-.175.228-.282.25-.294a.1.1 0 0 1 .07-.008c.073.022.06.048.133.07-.114.332-.123.327-.216.666.02-.004.03.037.05.033.022-.004.1-.019.21-.176.017-.025.028-.054.043-.08.04-.07.049-.058.097-.115l.219.143c-.018.012-.092-.002-.17.123a1.3 1.3 0 0 0-.103.192c-.013.031-.007.069-.02.1m6.479 6.8c-.242.467-.322.593-.576.884-.039-.056-.126-.061-.165-.117-.043-.061-.003-.064.067-.22.016-.035.164-.363.181-.448.033-.164-.064-.214-.173-.09-.042.049-.358.786-.387.855-.036.085-.292.516-.313.56-.034.07-.035.069-.083.129-.125.155-.281.425-.772.47-.332.031-.33.064-.662.034a9 9 0 0 1-.67-.143c-.53-.146-.534-.135-1.082-.112-.382.015-.393.063-.749-.08-.351-.14-.305-.207-.353-.275.07-.031.063-.046.226-.1.175-.058.176-.05.24-.087.14-.085.121-.16.138-.183.132.082.126.087.26.166.17.1.164.108.347.182.147.06.15.032.31.032l.227.046c.934.043 1.015-.156 1.186-.29.043-.034.105-.047.138-.091.039-.051.029-.13.067-.18l.06-.051c.12-.12.452-.369.467-1.012.012-.5-.023-.59-.146-.79.027-.03.083-.02.11-.051.03-.032.03-.081.045-.121.018-.045.1-.253-.037-.606-.065-.165-.106-.173-.03-.332.01-.023.036-.037.047-.06l.093-.102c.535-.467.768-.408.652-.946-.14-.653-.331-1.031-.43-2.113-.051-.546.02-.547-.023-1.222-.01-.171.01-.317.015-.326.059-.114.1-.138.113-.145.04-.024.024.065.067.04.044.321.034.32.043.645.012.035.003.075.016.109.045.12.07.106.11.226.07.2.313 1.535.338 1.669.074.407.12.4.12.68 0 .141.018.19.02.213.071 1.029.06 1.961.066 2.003.04.276.461.05.63.337.163.274.088.509.072.68.041-.027.108.02.149-.008.016-.011.039-.026.102-.23.056-.181.045-.183.05-.198.058-.186.084-.31.216-.168.05.055.021.063.005.138-.092.43-.12.42-.342.798m-2.857-6.735c-.01-.032-.06-.027-.05-.168.029-.445.183-.648.152-1.787-.006-.205-.017-.21.067-.348.03-.05.188-.31-.02-.74-.395-.814-.574-.737-.553-.927.003-.034.03-.064.058-.083.081-.054.102-.013 1.08-.584.164-.096.158-.109.22-.12.236-.045.156.13.647.598.227.215.476.4.469.54-.005.092-.134.13-.439.35-.428.31-.54.266-.877 1.098-.02.052-.017.053-.245.657-.185.49-.328 1.217-.33 1.225-.006.035-.003.073-.018.105-.01.023-.04.032-.053.054-.02.034.005.042-.021.074-.034.042-.053.015-.087.056m-1.15-.198c.024.058.105.077.129.135.003.009-.13.331-.174.446-.288.76-.356 1.16-1.004 2.679-.106.25-.153.376-.166.41-.014.02-.111.149-.194.239-.169.182-.188.182-.21.181-.053 0-.093-.063-.146-.064.205-.585.18-.593.394-1.107.096-.392.16-.522.18-.565.026-.054.046-.04.35-.655.152-.307.175-.293.404-.797.09-.198.23-.417.331-.676.047-.118.047-.116.106-.226m-1.088 9.174c.16-.159.195-.217.347-.216.5.005 1.232.147 1.535.19-.077.049-.033.09-.11.138-.007.005-.008.003-.113.003-.794.004-1.234-.196-1.313-.143-.054.038-.072.116-.127.153-.114-.057-.112-.056-.219-.125"/><path fill="#f2d9b0" d="m9.503 20.583-.087.116c-.01-.006-.024.003-.034-.003-.133-.087-.121-.106-.135-.107-.049 0-.076.064-.11.101-.028.032-.046.073-.074.105q-.026.027-.057.045c-.102.065-.107.054-.205.125-.087.063-.83.535-.986.672-.117.104-.153.166-.127.346.1.71.052.713.065.774.016.075.046.146.062.221-.007.051-.006.049-.024.296-.01.005-.064.073-.196.1-.035.008-.072 0-.107.007l-.181.098-.161.043c.009-.055-.035-.048-.026-.103.009-.05.024-.04.061-.105.093-.163.058-.173.036-.337-.026-.199.025-.435-.29-.76l.127-.068c.094-.056.086-.063.141-.138.142-.193.276-.345.167-.918-.03-.163-.06-.15-.098-.246.118-.07.206-.076.482-.397.312-.364.222-.485.51-.7.162-.121.196-.181.23-.214.253-.291.333-.417.575-.885.222-.378.25-.368.342-.798.016-.075.045-.083-.006-.138-.131-.142-.157-.018-.216.168-.004.015.007.017-.049.198-.063.204-.086.219-.102.23-.042.028-.108-.02-.15.009.017-.172.092-.407-.07-.681-.17-.287-.59-.06-.632-.337-.006-.042.006-.974-.065-2.003.055-.015.091-.076.146-.09.057-.016.161.199.325.322.315.236.335.198.552.232.451.07.358.785.615.403.006-.01.092-.204.1-.222.252-.574.447-1.612.45-1.881.001-.029-.031-.058-.018-.084.002-.004.005.01.065-.004.07-.017.065-.026.135-.043.355.463.555.462.954.93.052.06.052.058.105.117l.048.083c.015.007.184.09.166.13-.016.035-.087.067-.096.07-.067.03-.073.005-.14.034.07.792.086.8.004.997-.224.535-.526.59-.229.832.184.151.124.19.139.28l-.099.021c-.316.078-1.53.694-1.86 1.002-.013.013-.15.14-.118.213.016.036.074.04.09.077.012-.01.018-.027.03-.037.176-.132.387-.255.422-.275.704-.41 1.259-.445 1.435-.483.13-.028.202-.084.196.052-.003.091-.027.091-.06.124-.077.078-.293.372-.681.555-.3.141-.302.133-.596.285-.001 0-.264.06-.121.19.062.056.07.034.153.01.212-.058.21-.06.229-.066.107-.03.136-.076.187.025.03.062.015.066-.03.114-.01.01-.007.01-.116.127-.178.192-.37.532-.992 1.244m-3.436.773c-.042.04-.118.026-.16.066-.06.057.014.316.022.343.065.228.103.206.275.365-.4.307-.459.826-.47.835-.026.025-.079-.008-.106.017-.574-.227-.571-.232-1.104-.545-1.151-.677-1.64-1.362-1.842-1.481-.245-.145-.257-.148-.363-.415-.018-.047-.353-.803-.508-1.242-.054-.155-.122-.251-.222-.554-.19-.573-.358-.59-.23-.88.079-.182.143-.201.024-.36-.068-.093-.082-.096-.05-.205.063-.222.104-.206.157-.432.062-.268-.005-.267-.001-.336 0-.018.027-.022.037-.036.017-.026.013-.085.044-.082.096.01.19.215.201.238.02.045.39.627.425.68l.215.338c.09.089.094.083.1.091.039.044.023.053.062.098 0 .035.023.067-.004.228-.064.394-.124.699.084 1.449.294 1.06.866.987 1.124 1.203.173.144.174.142.19.154.106.07.104.068.218.125.679.27 1.134.282 1.775.2.293-.07.286-.085.562-.206.183-.08.453-.082.533-.089.021.065.075.116.096.181.005.016-.007.017.017.206a1 1 0 0 1 .006.112c-.005.341-.21.504-.345.68-.066-.034-.054-.049-.118-.082-.008-.004-.04-.02-.097-.029-.035-.005-.071.003-.106-.002-.033-.012-.07.032-.104.02-.152-.056-.214-.23-.223-.255-.108-.303-.041-.314-.055-.338-.015-.024-.044-.036-.059-.06m-3.85-8.658c.016.04.013.086.03.126.007.02.035.027.04.048.011.04-.007.041-.012.985-.004.698.045.882.148 1.233.013.015.056.255.328.06.685-.492.672-.507.682-.517.016-.016.025-.04.043-.053.02-.017.05-.02.072-.037l.135.095c-.215.514-.189.522-.394 1.107l-.059.228c-.006.027-.01.026-.093.34-.068.254-.096.24-.153.353-.062-.056-.069-.046-.121-.11-.193-.233-.179-.367-.196-.474-.022-.127.015-.184-.113-.185-.02 0-.047-.015-.063-.001-.049.042-.028.274-.026.298.014.155.158.826.173.897.047.221.049.22.05.447-.059-.028-.066.002-.124-.026-.004-.001.003-.006-.03-.048-.103-.13-.086-.139-.168-.283-.464-.816-.492-.797-.697-1.09-.461-.661-.469-.654-.507-.7-.144-.17-.12-.19-.086-.41.022-.143-.058-.226-.06-.231-.05-.145.087-.351.12-.446.11-.304.114-.303.12-.33.009-.034.008-.07.019-.105.004-.016.02-.026.025-.042.057.005.108.047.165.052.135.01.19-.127.197-.145.1-.25.05-.27.336-.775.132-.234.203-.245.22-.26m9.655-7.214c.002.022.079.17-.03.34-.068.106-.064.105-.118.22-.02.045-.222.513-.178.584.062.102.207.005.222-.005.106-.071.097-.08.207-.148l.121-.08c.017-.01.194-.125.223-.112.085.036.074.103.072.114-.014.083-.095.026-.108.108-.025.016-.266.172-.292.232a.065.065 0 0 0 .023.075c.024.015.059.005.085-.008.047-.022.076-.078.127-.092.1-.028.125.012.13.021.038.06-.086.05-.047.11-.247.317-.235.323-.443.668-.06.1-.116.106-.044.198.068.087.083.02.167-.05.036-.031.062-.077.104-.098.013-.007.018.022.03.03.027.015.087.006.083.036-.01.082-.075.148-.115.22-.419.75-.815 1.017-.9 1.082l-.199.124c-.107.06-.103.063-.206.127-.015-.024-.04-.04-.056-.064-.087-.134.146-.49.238-1.603.109-1.314.093-1.365.463-1.678l.352-.297c.028-.021.062-.033.09-.054m2.23-2.036c.017-.009.015-.012.212-.113.114-.058.656-.262.852-.228.377.065.473.596.511.741.085.663.01 1.064-.017 1.559-.015.276-.044.27-.086.544-.023.148-.211.974-.5 1.682-.037.091-.017.133-.233.44-.094.135-.314.267-.42.356-.124.104-.223.21-.357.3-.037.025-.124.083-.416.365l-.115.11c-.017-.022-.054-.022-.071-.045-.124-.16.267-.289 1.086-1.508.145-.215.811-1.207.881-3.134.031-.852-.155-.957-.244-1.028-.138-.11-.555-.164-1.224.348-.1.077-.102.11-.217.063-.045-.019-.083-.052-.128-.07l.113-.112c.021-.015.05-.017.07-.035s.027-.05.048-.068c.021-.02.054-.021.077-.038.03-.022.018-.032.048-.054.062-.045.068-.03.13-.075M3.67 4.739c.013.004.124-.059.198.112.24.555.254.546.481 1.105-.028.202 0 .211-.215.69-.316.707-.377.894-.403.974l-.02.089c-.015.028-.01.028-.025.057-.051.096-.136.105-.14.107-.024-.021-.291-.239-.304-.262-.015-.028-.002-.064 0-.095.013-.346-.103-.324-.146-.667-.046-.364-.014-.734.043-.727.083.01.091.238.173.426.047.109.113.091.142-.023.001-.005.021-.937-.012-1.123-.083-.46-.254-.686-.216-.774a.12.12 0 0 1 .082-.067c.016-.003.01.034.02.046.02.022.057.017.106.129.086.192.232.555.31.532.04-.012.031-.033-.074-.529m.103 4.654c.024-.035.057-.062.081-.098.048-.07.038-.078.108-.13.026-.02.769-.686 1.321-.185.543.491.091 1.13.033 1.657-.05.443-.053.44-.156.873-.023-.014-.057.009-.08-.006-.015-.009-.093-.057-.06-.216.007-.035.036-.062.044-.096.008-.037 0-.076.003-.113 0-.017 0-.016.024-.228.037-.341-.113-.393-.189-.554-.05-.107.006-.123-.143-.56-.13-.377-.223-.356-.893-.307zm10.331-.294c.015-.026-.008-.064.007-.09s.051-.026.072-.046c.017-.017.022-.045.039-.062.02-.02.049-.03.071-.048q.058-.051.115-.104c.02-.019.261-.232.327-.121.028.047 0 .048-.087.23-.116.244-.355 1.434-.41 1.516-.048.072-.365.122-.612.243-.144.07-.607.578-.657.674-.014.027-.02.058-.036.084-.013.02-.037.031-.05.052-.14-.23-.248-.267-.056-.702.03-.07.156-.355.617-.725.387-.31.528-.212.652-.697.037-.145.007-.171.008-.204m-5.209.227c.042.039.064.015.175.161.043.057.045.053.088.13.026.046.095.167.342.564-.082.004-.062.064-.146.067-.01 0-.01 0-.108-.056-.041-.024-.078-.054-.12-.074-.398-.184-1.26.428-1.277.444-.13.12-.145.097-.21.139-.007-.026-.042-.038-.05-.064-.016-.055.05-.72.17-.983.027-.06.187-.276.217-.303.371-.33.911-.028.92-.025M.83 6.288c-.06.227-.064.223-.119.453-.079.332-.17.357.014.645.24.377.222.386.385.804.076.196.19.24.018.355-.035.024-.092-.025-.128-.001l-.063-.042C.764 8.172.77 8.171.585 7.85c-.016-.028-.056-.097-.252-.303-.237-.25-.06-.316.066-.912.06-.28.102-.27.117-.556.002-.034-.01-.072.004-.103.01-.02.042-.012.059-.025s.021-.065.04-.054c.104.056.2.357.21.391"/><path fill="#114453" d="M6.508 21.989c.035.005.071-.003.106.002.058.009.09.025.097.029.064.033.052.048.118.081l.099.116c.314.325.263.561.29.76.021.164.034.118-.015.315-.018.072-.052.1-.06.15-.01.054.012.025.003.08-.022.02-.063-.002-.084.017-.024.021-.02.062-.036.09-.011.018-.032.03-.044.046-.017.024-.025.055-.044.076-.02.021-.053.027-.07.05s-.007.062-.027.081c-.026.025-.073.015-.1.04-.043.005-.084.027-.128.032-.203.025-.54-.142-.653-.31-.168-.248-.18-.238-.194-.26s-.013-.055-.028-.078c.016-.038.05-.067.065-.105.049-.12-.028-.1-.175-.22.027-.024.08.009.107-.016.01-.009.069-.528.469-.835.02.029.065.031.086.06.008.009-.015.02.063.137.061.092.04.13.15.138.016.001.18.012.152-.156-.007-.036-.041-.063-.07-.087-.03-.027-.04-.007-.072-.034-.079-.068-.062-.082-.141-.15z"/><path fill="#b0a399" d="M7.264 20.847c.038.096.068.083.098.245.109.574-.024.726-.167.92-.055.074-.047.081-.14.137-.042.024-.086.044-.127.068l-.1-.116c.136-.175.341-.338.346-.679q0-.056-.006-.112c-.024-.189-.011-.19-.017-.206-.02-.065-.075-.116-.096-.181z"/><path fill="#b8ada3" d="M6.203 22.13c-.171-.16-.209-.137-.274-.365-.008-.027-.082-.285-.022-.343.042-.04.118-.026.16-.066.015.024.044.037.059.06.014.024-.053.035.055.338.01.026.071.2.223.255.033.012.07-.032.104-.02l-.136.049c.079.068.062.082.141.15.032.028.041.008.073.035.028.024.062.05.069.086.028.168-.136.157-.153.156-.11-.007-.088-.046-.149-.138-.078-.117-.056-.128-.063-.138-.02-.028-.066-.03-.087-.058"/><path fill="#2f2826" d="M3.901 17.12c.784-.273.784.228 1.618.178.758-.045.954-.094 1.325.444.123.198.158.29.146.79-.015.642-.347.89-.467 1.01-.034-.055-.115-.067-.149-.122-.009-.015.03-.017-.003-.217a.21.21 0 0 0-.19-.183c-.106-.012-.746.139-.571.524.11.244.734.071.853.05-.038.05-.028.129-.067.18-.033.044-.095.056-.138.09-.17.135-.252.334-1.186.29.005-.021-.004-.045.001-.067.009-.034.035-.062.039-.097.003-.029 0-.027-.04-.344l-.175.004c-.005.007-.008.011-.016.103-.014.179-.01.178-.036.356-.159 0-.163.027-.31-.032-.182-.074-.176-.082-.347-.182-.134-.079-.128-.084-.26-.166-.033-.04-.025-.044-.058-.083-.05-.061-.047-.062-.094-.125.024-.01.024.072.048.063.064-.026.09-.109.151-.142.03-.017.373.044.448-.021.278-.244-.29-.805-.551-.56-.025.023-.029.062-.044.092-.023.043-.04.091-.071.129-.043.051-.06.028-.102.078-.044.052-.018.067-.062.12-.002-.004-.542-.714-.148-1.636.143-.335.409-.495.456-.523"/><path fill="#825a46" d="M11.724 6.044c.061.035.089.115.15.15a.4.4 0 0 0 .202-.028c.035-.025.023-.039.396-.38a8 8 0 0 1 1.055-.713c.106-.055.257-.181.758-.364.158-.058.498-.203.51.142.025.807-.221 1.48-.704 2.232-.373.58-1.259 1.067-1.57 1.76-.342.769-.176.833-.346 1.095-.012.019-.343.528-.266-.084.026-.212-.006-.541.107-.77.061-.123.091-.115.085-.234-.007-.142-.186-.07-.202-.065-.092.037-.51.28-.56.261-.058-.021-.088-.095-.147-.117.084-.065.48-.332.9-1.082.04-.072.103-.138.114-.22.004-.03-.056-.021-.082-.037-.012-.007-.018-.036-.03-.03-.043.022-.068.068-.105.099-.084.07-.1.137-.167.05-.072-.092-.016-.099.044-.198.208-.345.196-.351.443-.667.002-.047.078-.069.08-.116 0-.01-.452.195-.502.089-.027-.058.396-.312.396-.312.014-.082.017-.025.03-.108.003-.01.09-.078.007-.114-.03-.013-.207.101-.224.112q-.06.041-.121.08c-.11.068-.1.077-.207.148-.015.01-.16.107-.222.005-.043-.071.159-.54.178-.584M6.98 16.571c-.011.023-.037.037-.048.06-.075.16-.034.167.03.332.138.353.056.56.038.606-.016.04-.016.089-.044.12s-.083.022-.11.053c-.372-.538-.569-.489-1.326-.444-.834.05-.834-.451-1.618-.177-.029-.069-.136-.08-.165-.149-.015-.035.044-.063.06-.098.019-.043.028-.09.043-.134.056-.17.064-.165.13-.331.183-.462.2-.452.438-.888.14-.193.132-.21.35-.305.14-.06.442-.067.541-.06.927.075 1.184.034 1.313.263.012.022.015.049.027.07.016.022.048.026.1.137.222.46.191.565.236.666.027.062.07.115.098.177z"/><path fill="#81786e" d="M3.84 15.389c.054.005.089.074.143.08.041.003.07-.044.11-.057.035-.012.075-.007.111-.02l.221.023-.018.106c-.237.436-.255.426-.438.888-.066.166-.074.16-.13.33-.015.045-.024.092-.043.135-.015.035-.075.063-.06.098.03.069.136.08.165.148a1.15 1.15 0 0 0-.456.524c-.394.922.146 1.632.148 1.636.095.12.094.118.183.24.047.064.043.065.094.126.033.04.025.043.058.083-.017.022.003.098-.139.183-.063.037-.064.03-.239.087-.163.055-.156.069-.226.1-.03-.02-.071-.01-.1-.029-.139-.087-.28-.422-.29-.453-.35-1.027-.02-1.9-.009-2.195.015-.38.025-.378.059-.756.058-.114.085-.1.153-.353.083-.314.087-.313.094-.34.028-.116.028-.113.058-.228.053 0 .093.064.146.065.022 0 .041 0 .21-.182.083-.09.18-.22.194-.24m2.452 3.334c-.667-.224-.664-.23-.782-.255-1.13-.242-1.667.084-1.876-.015-.14-.067-.044-.455-.034-.493.064-.26.156-.358.26-.45.315-.28.658-.11.77-.064.533.219.546.206 1.116.133.523-.067.9.35.802.96-.023.14-.137.181-.155.188-.032.011-.07-.015-.101-.004"/><path fill="#2f2b27" d="M2.655 11.294c.344-.489.554-.892 1.115-.817.458.06.642.526.668.592.058.145.371.743.212.905-.038.039-.045.039-.669.066-.168.008-.436.037-.689-.133-.168-.113-.165-.116-.282-.283-.067-.095-.068-.093-.136-.187zm5.601.223c.018.043.335-.279.377-.298.357-.16.584.447.206.703-.05.035.048.035.213.114.037.018.07.05.11.06.035.01.101-.036.11 0 .025.116-.36.373-.354.379.083.072.03.11.111.182-.337 0-.337.001-.652-.053-.434-.074-.592-.029-.65-.118l-.02-.188c.115-.342.173-.307.393-.592.035-.046.064-.096.1-.14.017-.02.04-.03.056-.05"/><path fill="#120e0b" d="M5.847 20.867c-.303-.043-1.034-.185-1.534-.19-.152-.001-.187.057-.347.216-.015-.012-.016-.01-.19-.154-.257-.216-.829-.144-1.123-1.203-.208-.75-.148-1.055-.084-1.449.027-.16.003-.193.004-.228.069-.157.069-.154.116-.32-.002-.228-.004-.226-.051-.448a16 16 0 0 1-.173-.897c-.002-.024-.023-.256.026-.298.016-.014.042.001.063.002.128 0 .091.057.113.184.017.107.003.24.196.474.052.064.059.054.12.11-.033.378-.044.376-.058.756-.011.294-.342 1.168.008 2.196.01.03.152.365.29.453.03.018.071.009.1.028.049.068.003.134.354.275.356.143.367.096.749.08.547-.023.552-.034 1.082.112.053.015.152.042.67.143.332.03.33-.003.662-.033.49-.046.646-.316.772-.471.048-.06.048-.059.083-.13.021-.043.277-.474.313-.558.03-.07.344-.807.387-.855.11-.125.206-.075.173.089a4 4 0 0 1-.18.448c-.07.156-.111.159-.068.22.04.056.126.062.165.117-.033.033-.067.093-.228.213-.29.216-.2.337-.511.701-.276.321-.364.328-.482.397l-.21.076c-.079.007-.35.009-.532.089-.276.121-.269.136-.562.205-.641.083-1.096.072-1.775-.199.054-.037.073-.115.127-.152.079-.054.519.146 1.313.143.105-.001.106.001.113-.004.077-.049.033-.09.11-.138M3.593 19.28c.044-.053.018-.067.061-.12.042-.05.06-.027.103-.078.031-.038.048-.086.07-.13.016-.03.02-.068.044-.09.262-.246.83.315.552.559-.075.065-.418.004-.448.021-.06.033-.087.116-.151.142-.025.01-.024-.073-.048-.063-.09-.123-.088-.122-.183-.24m2.93.263-.06.05c-.12.022-.743.195-.854-.049-.174-.386.465-.536.571-.524a.21.21 0 0 1 .19.183c.034.2-.005.202.004.217.034.055.115.068.149.123m-1.451.103c.04.317.043.316.04.344-.004.035-.03.063-.039.097-.005.022.004.046-.002.068l-.226-.046c.025-.178.022-.177.036-.356.007-.092.01-.096.016-.103z"/><path fill="#7f452c" d="M3.531 10.815c.035.012.324-.017.122.26-.087.118-.112.094-.114.106-.002.013-.009.068.09.139.177.125.359-.084.38-.107.07-.081.096-.086.169-.007.081.089-.076.3-.088.312a.5.5 0 0 1-.789-.212c-.095-.262.098-.32.117-.344.02-.026.014-.067.034-.094.02-.025.06-.028.08-.053m5.176.886.087.016c.01.042-.017.088-.008.13.026.11.314.165.45-.005.037-.045.136-.341.268-.13.15.24-.324.713-.772.429-.128-.082-.186-.24-.173-.268.032-.069.116-.103.148-.172"/><path fill="#fcfbf9" d="M8.706 11.701c-.097-.084-.12-.11-.034-.206.135-.147.348.034.175.183l-.053.039zm-5.199-.603c-.097-.084-.12-.11-.034-.205.135-.149.348.033.175.182-.016.015-.036.025-.053.04z"/></g><defs><clipPath id="a"><path fill="#fff" d="M0 0h18v32H0z"/></clipPath></defs></svg>